<svg id="visual" viewBox="0 0 1920 1080" width="1920" height="1080" xmlns="http://www.w3.org/2000/svg" xmlns:xlink="http://www.w3.org/1999/xlink" version="1.1"><rect x="0" y="0" width="1920" height="1080" fill="#001220"></rect><defs><linearGradient id="grad1_0" x1="43.8%" y1="0%" x2="100%" y2="100%"><stop offset="14.444444444444446%" stop-color="#001220" stop-opacity="1"></stop><stop offset="85.55555555555554%" stop-color="#001220" stop-opacity="1"></stop></linearGradient></defs><defs><linearGradient id="grad2_0" x1="0%" y1="0%" x2="56.3%" y2="100%"><stop offset="14.444444444444446%" stop-color="#001220" stop-opacity="1"></stop><stop offset="85.55555555555554%" stop-color="#001220" stop-opacity="1"></stop></linearGradient></defs><g transform="translate(1920, 0)"><path d="M0 972C-120 940.4 -239.9 908.8 -359 866.6C-478 824.4 -596 771.7 -687.3 687.3C-778.6 602.9 -843 486.8 -886 367C-929 247.2 -950.5 123.6 -972 0L0 0Z" fill="#FBAE3C"></path></g><g transform="translate(0, 1080)"><path d="M0 -972C115.9 -936.6 231.8 -901.3 357 -862C482.3 -822.7 617 -779.5 687.3 -687.3C757.6 -595.2 763.4 -454.1 800.1 -331.4C836.8 -208.7 904.4 -104.4 972 0L0 0Z" fill="#FBAE3C"></path></g></svg>