<svg id="visual" viewBox="0 0 1920 100" width="1920" height="100" xmlns="http://www.w3.org/2000/svg" xmlns:xlink="http://www.w3.org/1999/xlink" version="1.1"><g stroke-width="1" stroke-linejoin="bevel"><path d="M911 100L1012 100L1013 0Z" fill="#00101c" stroke="#00101c"></path><path d="M1013 0L879 0L911 100Z" fill="#236385" stroke="#236385"></path><path d="M879 0L806 0L911 100Z" fill="#123146" stroke="#123146"></path><path d="M1012 100L1143 100L1013 0Z" fill="#0d2637" stroke="#0d2637"></path><path d="M1143 100L1156 0L1013 0Z" fill="#123146" stroke="#123146"></path><path d="M806 0L760 100L911 100Z" fill="#00101c" stroke="#00101c"></path><path d="M806 0L663 0L760 100Z" fill="#081b29" stroke="#081b29"></path><path d="M1302 100L1298 0L1156 0Z" fill="#297ea6" stroke="#297ea6"></path><path d="M1143 100L1302 100L1156 0Z" fill="#00101c" stroke="#00101c"></path><path d="M663 0L601 100L760 100Z" fill="#1f5675" stroke="#1f5675"></path><path d="M1302 100L1387 0L1298 0Z" fill="#081b29" stroke="#081b29"></path><path d="M663 0L504 0L601 100Z" fill="#00101c" stroke="#00101c"></path><path d="M504 0L481 100L601 100Z" fill="#123146" stroke="#123146"></path><path d="M1302 100L1445 100L1387 0Z" fill="#267095" stroke="#267095"></path><path d="M504 0L409 0L481 100Z" fill="#173d55" stroke="#173d55"></path><path d="M409 0L409 100L481 100Z" fill="#123146" stroke="#123146"></path><path d="M1445 100L1525 0L1387 0Z" fill="#081b29" stroke="#081b29"></path><path d="M1516 100L1525 0L1445 100Z" fill="#00101c" stroke="#00101c"></path><path d="M409 0L260 0L409 100Z" fill="#1b4965" stroke="#1b4965"></path><path d="M1516 100L1673 0L1525 0Z" fill="#1b4965" stroke="#1b4965"></path><path d="M1516 100L1686 100L1673 0Z" fill="#173d55" stroke="#173d55"></path><path d="M260 0L220 100L409 100Z" fill="#081b29" stroke="#081b29"></path><path d="M260 0L167 100L220 100Z" fill="#123146" stroke="#123146"></path><path d="M1686 100L1762 100L1673 0Z" fill="#1b4965" stroke="#1b4965"></path><path d="M260 0L108 0L167 100Z" fill="#0d2637" stroke="#0d2637"></path><path d="M1762 100L1818 0L1673 0Z" fill="#123146" stroke="#123146"></path><path d="M1920 100L1920 0L1818 0Z" fill="#1f5675" stroke="#1f5675"></path><path d="M1762 100L1920 100L1818 0Z" fill="#123146" stroke="#123146"></path><path d="M108 0L0 100L167 100Z" fill="#173d55" stroke="#173d55"></path><path d="M0 0L0 100L108 0Z" fill="#00101c" stroke="#00101c"></path></g></svg>